<?xml version="1.0" encoding="UTF-8"?>
<svg id="Layer_2" xmlns="http://www.w3.org/2000/svg" viewBox="0 0 2900.84 537.77">
  <defs>
    <style>
      .cls-1 {
        fill: #fff;
      }

      .cls-2 {
        fill: #3da1ff;
      }
    </style>
  </defs>
  <g id="Layer_1-2" data-name="Layer_1">
    <g>
      <path class="cls-2" d="M322.78,269.19c0,79.49-54.2,159.58-148.74,159.58-47.57,0-78.29-18.07-97.56-43.36v14.45c0,12.04-9.63,21.68-21.68,21.68H21.68c-12.04,0-21.68-9.64-21.68-21.68V21.68C0,9.64,9.64,0,21.68,0h33.12c12.04,0,21.68,9.64,21.68,21.68v130.68c19.27-25.29,49.98-43.36,97.56-43.36,94.55,0,148.74,80.09,148.74,160.19ZM244.5,269.19c0-46.97-30.11-86.72-82.5-86.72s-82.5,39.14-82.5,86.72,30.11,86.72,82.5,86.72,82.5-40.35,82.5-86.72Z"/>
      <path class="cls-2" d="M589.56,116.23h40.35c11.44,0,19.27,11.44,15.06,22.28-25.29,63.23-96.96,244.5-112.61,283.04-28.91,71.06-56,116.22-117.43,116.22-5.42,0-12.04-.6-18.67-1.81-7.83-.6-13.85-7.83-13.85-15.66v-28.91c0-8.43,6.62-15.66,15.05-16.26,31.92-1.21,49.98-20.47,66.84-71.66-4.22-10.24-87.32-198.73-116.83-264.37-4.82-10.84,3.01-22.88,15.05-22.88h39.14c11.44,0,21.08,6.62,25.29,17.46l71.06,183.67,66.24-183.07c4.21-10.84,13.85-18.07,25.29-18.07Z"/>
      <path class="cls-1" d="M926.2,327.6c0,59.62-43.36,101.17-129.47,101.17-51.19,0-102.38-17.46-124.05-56.61-4.82-8.43-.6-19.87,9.63-22.88l42.76-13.25c7.23-2.41,14.45.6,18.67,7.23,6.62,10.84,22.28,21.68,54.2,21.68s49.98-12.04,49.98-32.52c0-28.3-43.96-27.7-80.09-34.93-59.02-12.04-89.13-40.95-89.13-92.74,0-57.81,48.78-95.75,119.84-95.75,46.37,0,91.54,19.87,110.81,60.22,4.21,9.03-1.21,19.87-10.84,22.28l-39.14,9.64c-6.62,1.81-13.85-1.2-17.46-7.23-7.23-11.44-21.08-20.48-43.36-20.48s-45.17,7.83-45.17,30.71c0,27.1,40.95,29.51,65.04,34.93,75.28,16.26,107.79,36.73,107.79,88.52Z"/>
      <path class="cls-1" d="M1227.3,116.23h33.12c12.04,0,21.68,9.64,21.68,21.68v261.96c0,12.04-9.63,21.68-21.68,21.68h-33.12c-12.04,0-21.68-9.64-21.68-21.68v-14.45c-19.27,25.29-49.98,43.36-97.56,43.36-94.55,0-148.74-80.09-148.74-159.58s54.2-160.19,148.74-160.19c47.57,0,78.29,18.07,97.56,43.36v-14.45c0-12.04,9.64-21.68,21.68-21.68ZM1202.61,269.19c0-47.57-30.11-86.72-82.5-86.72s-82.5,39.75-82.5,86.72,30.11,86.72,82.5,86.72,82.5-39.75,82.5-86.72Z"/>
      <path class="cls-1" d="M1645.23,277.62c0,11.44-9.63,21.08-21.08,21.08h-206.56c10.84,40.35,44.56,62.03,86.72,62.03,27.7,0,48.18-11.44,60.22-21.68,5.42-4.82,12.65-5.42,18.67-1.81l34.33,20.47c9.03,5.42,10.24,17.46,3.01,25.29-26.5,26.5-67.45,45.77-116.22,45.77-101.17,0-168.01-66.85-168.01-159.58s71.66-160.19,155.97-160.19,157.17,60.82,152.96,168.62ZM1569.36,239.68c-7.83-40.35-34.93-62.63-75.88-62.63-37.34,0-66.84,23.49-75.88,62.63h151.76Z"/>
      <path class="cls-1" d="M1833.13,186.08h-43.36v111.41c0,34.93,4.82,55.4,46.97,55.4h1.21c9.03,0,16.86,7.23,16.86,16.26v39.75c0,8.43-6.02,15.05-13.85,16.26-5.42.6-10.84.6-18.07.6-78.29,0-109.6-52.39-109.6-115.62v-124.05h-27.7c-11.44,0-21.08-9.64-21.08-21.08v-27.1c0-12.04,9.63-21.68,21.08-21.68h27.7v-42.15c0-12.04,9.03-21.68,21.08-21.68h33.72c12.04,0,21.68,9.64,21.68,21.68v42.15h43.36c12.04,0,21.68,9.64,21.68,21.68v27.1c0,11.44-9.63,21.08-21.68,21.08Z"/>
      <path class="cls-1" d="M2195.05,236.06v163.8c0,12.04-9.63,21.68-21.68,21.68h-33.12c-12.04,0-21.68-9.64-21.68-21.68v-148.14c0-39.14-16.26-68.65-59.62-68.65s-65.04,33.12-65.04,68.65v148.14c0,12.04-9.03,21.68-21.08,21.68h-33.72c-11.44,0-21.08-9.64-21.08-21.68V21.68c0-12.04,9.64-21.68,21.08-21.68h33.72c12.04,0,21.08,9.64,21.08,21.68v131.88c16.86-24.69,44.56-44.56,89.13-44.56,77.08,0,112.01,62.03,112.01,127.06Z"/>
      <path class="cls-1" d="M2558.18,277.62c0,11.44-9.63,21.08-21.08,21.08h-206.56c10.84,40.35,44.56,62.03,86.72,62.03,27.7,0,48.18-11.44,60.22-21.68,5.42-4.82,12.65-5.42,18.67-1.81l34.33,20.47c9.03,5.42,10.24,17.46,3.01,25.29-26.5,26.5-67.45,45.77-116.22,45.77-101.17,0-168.01-66.85-168.01-159.58s71.66-160.19,155.97-160.19,157.17,60.82,152.96,168.62ZM2482.31,239.68c-7.83-40.35-34.93-62.63-75.88-62.63-37.34,0-66.84,23.49-75.88,62.63h151.76Z"/>
      <path class="cls-1" d="M2773.17,110.2c9.63-1.2,18.07,6.02,18.07,16.26v48.18c0,9.03-7.23,16.26-16.26,16.26-75.28-2.41-85.51,51.79-85.51,104.78v104.18c0,12.04-9.64,21.68-21.08,21.68h-33.72c-12.04,0-21.68-9.64-21.68-21.68V137.9c0-12.04,9.64-21.68,21.68-21.68h33.72c11.44,0,21.08,9.64,21.08,21.68v27.7c19.27-31.31,51.79-49.98,83.71-55.4Z"/>
      <path class="cls-2" d="M2900.84,384.81c0,24.69-19.87,44.56-43.96,44.56s-44.56-19.87-44.56-44.56,19.87-44.56,44.56-44.56,43.96,19.87,43.96,44.56Z"/>
    </g>
  </g>
</svg>