<?xml version="1.0" encoding="utf-8"?>
<!-- Generator: Adobe Illustrator 25.4.1, SVG Export Plug-In . SVG Version: 6.00 Build 0)  -->
<svg version="1.1" id="Layer_1" xmlns="http://www.w3.org/2000/svg" xmlns:xlink="http://www.w3.org/1999/xlink" x="0px" y="0px"
	 viewBox="0 0 360 283.5" style="enable-background:new 0 0 360 283.5;" xml:space="preserve">
<style type="text/css">
	.st0{fill:none;}
	.st1{fill:#FFFFFF;}
</style>
<rect class="st0" width="360" height="283.5"/>
<g>
	<path class="st1" d="M146.5,43.9c-4.9-4.5-11.9-7.1-19.7-7.1c-7.8,0-14.8,2.5-19.7,7.1c-5.3,4.9-8.1,12.1-8.1,20.7V96
		c0,8.3,2.8,15.3,8.1,20.3c5,4.6,12,7.2,19.7,7.2s14.7-2.6,19.7-7.2c5.3-5,8.1-12,8.1-20.3V64.7C154.6,56.1,151.8,48.9,146.5,43.9z
		 M126.8,105.7c-4.5,0-8.1-3.6-8.1-8.1c0-4.5,3.6-8.1,8.1-8.1c4.5,0,8.1,3.6,8.1,8.1C134.9,102,131.3,105.7,126.8,105.7z M134.9,76
		c0,4.5-3.6,8.1-8.1,8.1c-4.5,0-8.1-3.6-8.1-8.1V62.4c0-4.5,3.6-8.1,8.1-8.1c4.5,0,8.1,3.6,8.1,8.1V76z"/>
	<path class="st1" d="M211.3,75.4c0-12.6-8.5-21.1-21.1-21.1c-7,0-11.2,2.1-11.2,2.1l-0.5,0.3V37h-18.1v61.6c0,7.2,2.6,13.5,7.5,18
		c4.6,4.3,11,6.7,18,6.7c7,0,13.4-2.4,18-6.7c4.9-4.6,7.4-10.8,7.4-18c0-2.1,0-6.8,0-11.4C211.3,82.8,211.3,77.2,211.3,75.4z
		 M194.7,97.5c0,4.5-3.7,8.2-8.2,8.2c-4.5,0-8.2-3.7-8.2-8.2V77.4c0-4.5,3.7-8.2,8.2-8.2c4.5,0,8.2,3.7,8.2,8.2V97.5z"/>
	<path class="st1" d="M264.7,102.8c0-11.5-5.5-16.3-17-20.9c-8.5-3.4-15.2-4.9-14.7-8.6c0.5-3.4,6.3-4.3,10.4-4.3
		c7.1,0,12.2,1.1,17.9,3.1V56.7c-9.2-2.4-19.4-3.3-28.1-1.3c-13.7,3.1-17.8,12.6-17.8,19.2c0,4.6,1.5,8.6,4.6,11.8
		c3.1,3.2,6.8,5.2,12.4,7.1c5.3,1.8,8.7,3.1,9.7,3.6c2.8,1.3,4.2,3,3.9,5.1c-0.5,3.2-5.1,5-11.5,5c-6.7,0-11.7-1.9-18.3-4.6l0,17.1
		c4.1,1.5,9,3.7,20.5,3.7C254.3,123.4,264.7,112.9,264.7,102.8z"/>
</g>
<path class="st1" d="M132,232v-21.8l-25.6-66.8h23.7c0,0,11.8,36.3,13.8,42.3c2.1-6,15.8-42.3,15.8-42.3h23.6l-27.6,66.8V232H132z"
	/>
<path class="st1" d="M293.2,163c12.8-1,22.4,2.7,22.4,2.7v-20.8c-3.8-0.9-14.7-2.6-22.6-2.6c-26,0-40.5,12.2-40.5,37.2v16.7
	c0,24.9,12,37.2,36.1,37.2c13.3,0,22.7-1,29.4-2.2v-52h-32.8v16.2h10.6v16.5c-1.9,0.4-3.5,0.5-6.8,0.5c-8.3,0-13.3-3.2-13.3-13.1
	V179C275.8,169.3,284.1,163.6,293.2,163z"/>
<path class="st1" d="M220.7,163c12.8-1,22.4,2.7,22.4,2.7v-20.8c-3.8-0.9-14.7-2.6-22.6-2.6c-26,0-40.5,12.2-40.5,37.2v16.7
	c0,24.9,12,37.2,36.1,37.2c13.3,0,22.7-1,29.4-2.2v-52h-32.8v16.2h10.6v16.5c-1.9,0.4-3.5,0.5-6.8,0.5c-8.3,0-13.3-3.2-13.3-13.1
	V179C203.3,169.3,211.6,163.6,220.7,163z"/>
<path class="st1" d="M41.1,232v-88.5h39.3c17.6,0,26.7,11.5,26.7,23.5l0,0c0,11-4.3,16.1-9.9,19c7.3,1.8,14.5,9.7,14.5,20.5v1.8
	c0,11.8-8.8,23.7-30.4,23.7H41.1z M87.7,169.6c0-4-3-7.4-6.9-8.2c-0.7-0.2-1.4-0.3-2.2-0.3H63.9V178h14.6c0.9,0,1.7-0.1,2.4-0.3
	C84.8,176.9,87.7,173.6,87.7,169.6z M79.5,194.3l-15.5,0v18.9h14.6c0.7,0,1.3,0,1.9-0.1c4.9-0.5,8.7-4.5,8.8-9.4
	C89.2,198.5,84.8,194.3,79.5,194.3z M89.2,203.6C89.2,203.7,89.2,203.7,89.2,203.6c0,0.1,0,0.1,0,0.1V203.6z"/>
</svg>
