<?xml version="1.0" encoding="utf-8"?>
<!-- Generator: Adobe Illustrator 15.1.0, SVG Export Plug-In . SVG Version: 6.00 Build 0)  -->
<!DOCTYPE svg PUBLIC "-//W3C//DTD SVG 1.1//EN" "http://www.w3.org/Graphics/SVG/1.1/DTD/svg11.dtd">
<svg version="1.1" id="Layer_1" xmlns="http://www.w3.org/2000/svg" xmlns:xlink="http://www.w3.org/1999/xlink" x="0px" y="0px"
	 width="500px" height="300px" viewBox="0 0 500 300" enable-background="new 0 0 500 300" xml:space="preserve">
<g>
	<defs>
		<rect id="SVGID_1_" x="60.749" y="0.985" width="378.503" height="298.029"/>
	</defs>
	<clipPath id="SVGID_2_">
		<use xlink:href="#SVGID_1_"  overflow="visible"/>
	</clipPath>
	<path clip-path="url(#SVGID_2_)" fill="#003974" d="M214.751,47.188c-5.152-4.781-12.494-7.415-20.672-7.415
		c-8.182,0-15.523,2.634-20.672,7.415c-5.595,5.19-8.549,12.73-8.549,21.808v32.874c0,8.722,2.954,16.085,8.549,21.297
		c5.231,4.873,12.575,7.56,20.672,7.56c8.097,0,15.438-2.687,20.672-7.56c5.594-5.211,8.549-12.575,8.549-21.297V68.997
		C223.3,59.919,220.345,52.379,214.751,47.188 M194.079,112.097c-4.703,0-8.529-3.826-8.529-8.527c0-4.704,3.826-8.527,8.529-8.527
		c4.7,0,8.527,3.823,8.527,8.527C202.606,108.271,198.779,112.097,194.079,112.097 M202.606,80.925c0,4.7-3.828,8.526-8.527,8.526
		c-4.703,0-8.529-3.826-8.529-8.526V66.622c0-4.703,3.826-8.528,8.529-8.528c4.7,0,8.527,3.825,8.527,8.528V80.925z"/>
	<path clip-path="url(#SVGID_2_)" fill="#003974" d="M282.861,80.265c0-13.261-8.91-22.171-22.172-22.171
		c-7.393,0-11.782,2.16-11.826,2.181l-0.529,0.265V39.928h-19.007v64.776c0,7.614,2.71,14.167,7.836,18.955
		c4.881,4.559,11.607,7.067,18.938,7.067c7.336,0,14.063-2.51,18.943-7.069c5.123-4.792,7.832-11.351,7.832-18.975
		c0-2.184-0.006-7.14-0.008-11.982C282.865,88.071,282.861,82.169,282.861,80.265 M265.486,103.514c0,4.733-3.85,8.583-8.584,8.583
		c-4.73,0-8.583-3.851-8.583-8.583V82.413c0-4.733,3.852-8.583,8.583-8.583c4.734,0,8.584,3.85,8.584,8.583V103.514z"/>
	<path clip-path="url(#SVGID_2_)" fill="#003974" d="M339.029,109.035c0-12.125-5.789-17.102-17.908-21.954
		c-8.98-3.594-15.971-5.185-15.41-9.076c0.508-3.547,6.635-4.528,10.92-4.528c7.488,0,12.779,1.131,18.797,3.213V60.583
		c-9.635-2.489-20.43-3.428-29.549-1.326c-14.361,3.312-18.711,13.212-18.711,20.162c0,4.816,1.57,9.027,4.848,12.406
		c3.225,3.333,7.141,5.419,13.076,7.414c5.617,1.889,9.16,3.256,10.234,3.759c2.994,1.407,4.42,3.119,4.068,5.403
		c-0.518,3.382-5.387,5.299-12.061,5.299c-7.07,0-12.328-2.05-19.203-4.788l-0.029,17.93c4.305,1.528,9.467,3.879,21.568,3.879
		C328.133,130.721,339.029,119.721,339.029,109.035"/>
	<path clip-path="url(#SVGID_2_)" fill="#003974" d="M199.518,244.945v-22.903l-26.879-70.181h24.91
		c0,0,12.458,38.174,14.555,44.467c2.228-6.293,16.652-44.467,16.652-44.467h24.779l-28.974,70.181v22.903H199.518z"/>
	<path clip-path="url(#SVGID_2_)" fill="#003974" d="M368.998,172.313c13.506-1.001,23.576,2.854,23.576,2.854v-21.896
		c-4.037-0.937-15.484-2.719-23.809-2.719c-27.309,0-42.551,12.856-42.551,39.078v17.547c0,26.222,12.645,39.076,37.936,39.076
		c13.99,0,23.83-1.072,30.939-2.359v-54.667h-34.438v17.046h11.166v17.299c-2.02,0.396-3.633,0.525-7.131,0.525
		c-8.744,0-13.99-3.409-13.99-13.766v-21.146C350.697,178.96,359.475,173.018,368.998,172.313"/>
	<path clip-path="url(#SVGID_2_)" fill="#003974" d="M292.773,172.313c13.504-1.001,23.574,2.854,23.574,2.854v-21.896
		c-4.035-0.937-15.484-2.719-23.807-2.719c-27.311,0-42.554,12.856-42.554,39.078v17.547c0,26.222,12.646,39.076,37.937,39.076
		c13.99,0,23.832-1.072,30.939-2.359v-54.667h-34.438v17.046h11.166v17.299c-2.02,0.396-3.633,0.525-7.133,0.525
		c-8.74,0-13.986-3.409-13.986-13.766v-21.146C274.473,178.96,283.248,173.018,292.773,172.313"/>
	<path clip-path="url(#SVGID_2_)" fill="#003974" d="M103.982,244.945v-93.084h41.333c18.458,0,28.051,12.121,28.051,24.708
		c0,11.605-4.521,16.961-10.449,19.977c7.653,1.856,15.216,10.163,15.216,21.554v1.928c0,12.454-9.272,24.918-31.962,24.918H103.982
		z M152.974,179.325c0-4.246-3.161-7.806-7.304-8.571c-0.705-0.181-1.482-0.278-2.348-0.278h-15.358v17.699h15.358
		c0.95,0,1.801-0.106,2.559-0.317C149.92,187.011,152.974,183.5,152.974,179.325 M144.284,205.234l-16.321-0.014v19.886h15.358
		c0.728,0,1.388,0.004,1.995-0.073c5.145-0.506,9.198-4.748,9.236-9.875C154.512,209.694,149.909,205.234,144.284,205.234
		 M154.558,215.086c0,0.023-0.003,0.049-0.004,0.071c0.001,0.025,0.004,0.05,0.004,0.073V215.086z"/>
</g>
</svg>
