<?xml version="1.0" encoding="UTF-8"?>
<svg id="Layer_2" data-name="Layer 2" xmlns="http://www.w3.org/2000/svg" viewBox="0 0 72 72">
  <defs>
    <style>
      .cls-1 {
        fill: #fff;
        fill-rule: evenodd;
      }
    </style>
  </defs>
  <g id="Layer_2-2" data-name="Layer 2">
    <path class="cls-1" d="M64,0H8C3.5898,0,0,3.5901,0,8v56c0,4.4202,3.5898,8,8,8h56c4.4199,0,8-3.5798,8-8V8c0-4.4099-3.5801-8-8-8ZM21.77,62h-10.73V27.3401h10.73v34.6599ZM16.3499,22.8c-3.5,0-6.3499-2.8699-6.3499-6.3999s2.8499-6.4001,6.3499-6.4001c3.51,0,6.3501,2.8701,6.3501,6.4001s-2.8401,6.3999-6.3501,6.3999ZM62,62h-10.6802v-18.1899c0-4.99-1.8999-7.78-5.8398-7.78-4.3,0-6.55,2.9001-6.55,7.78v18.1899h-10.29V27.3401h10.29v4.6699s3.1001-5.73,10.46-5.73c7.3501,0,12.6101,4.49,12.6101,13.78v21.9399Z"/>
  </g>
</svg>