<?xml version="1.0" encoding="UTF-8"?>
<svg xmlns="http://www.w3.org/2000/svg" viewBox="0 0 460.41 415.82">
  <g>
    <path fill="#fff" d="M330.85,283.05c0,77.19-56.14,131-167.65,131-66.28,0-132.56-22.61-160.63-73.3-6.24-10.92-.78-25.73,12.48-29.63l55.36-17.16c9.36-3.12,18.71.78,24.17,9.36,8.58,14.04,28.85,28.07,70.18,28.07s64.72-15.6,64.72-42.11c0-36.65-56.92-35.87-103.71-45.23C49.36,228.47,10.37,191.04,10.37,123.98,10.37,49.12,73.53,0,165.54,0c60.04,0,118.52,25.73,143.47,77.97,5.46,11.7-1.56,25.73-14.04,28.85l-50.68,12.48c-8.58,2.34-17.93-1.56-22.61-9.36-9.36-14.82-27.29-26.51-56.14-26.51s-58.48,10.14-58.48,39.77c0,35.09,53.02,38.21,84.21,45.23,97.47,21.05,139.57,47.56,139.57,114.62Z"/>
    <path fill="#3da1ff" d="M460.41,358.12c0,31.97-25.73,57.7-56.92,57.7s-57.7-25.73-57.7-57.7,25.73-57.7,57.7-57.7,56.92,25.73,56.92,57.7Z"/>
  </g>
</svg>